# xmcd
#
# Track frame offsets:
#	150
#	7353
#	17371
#	44614
#	70958
#	91802
#	112476
#	137674
#	149602
#	167145
#	195074
#	218998
#	236019
#	272888
#	294032
#	313387
#
# Disc length: 4347 seconds
#
# Revision: 21
# Processed by: cddbd v1.5.2PL0 Copyright (c) Steve Scherf et al.
# Submitted via: Jack! The Knife 20 Magnifico
#
DISCID=f510f910
DTITLE=Savatage - The Wake Of Magellan
DYEAR=1998
DGENRE=Heavy Metal
TTITLE0=The Ocean
TTITLE1=Welcome
TTITLE2=Turns To Me
TTITLE3=Morning Sun
TTITLE4=Another Way
TTITLE5=Blackjack Guillotine
TTITLE6=Paragons Of Innocence
TTITLE7=Complaint In The System (Veronica Guerin)
TTITLE8=Underture
TTITLE9=The Wake Of Magellan
TTITLE10=Anymore
TTITLE11=The Storm
TTITLE12=The Hourglass
TTITLE13=Somewhere In Time - Alone You Breathe
TTITLE14=Sleep
TTITLE15=Stay
EXTD=Paul O'Neill
EXTT0=Oliva, O'Neill
EXTT1=Oliva, O'Neill
EXTT2=O'Neill, Oliva, Pitrelli
EXTT3=Oliva, O'Neill, Caffery
EXTT4=O'Neill, Oliva, Pitrelli
EXTT5=Oliva, O'Neill, Caffery
EXTT6=Oliva, O'Neill
EXTT7=Oliva, O'Neill
EXTT8=Oliva, O'Neill
EXTT9=Oliva, O'Neill, Caffery, Middleton
EXTT10=Oliva, O'Neill
EXTT11=Oliva, O'Neill
EXTT12=O'Neill, Oliva, Pitrelli
EXTT13=C. Oliva, J. Oliva, O'Neill
EXTT14=C. Oliva, J. Oliva, O'Neill
EXTT15=C. Oliva, J. Oliva, O'Neill
PLAYORDER=
